<svg xmlns="http://www.w3.org/2000/svg" xmlns:xlink="http://www.w3.org/1999/xlink">
  <symbol id="facebook"><path d="M24 12.073c0-6.627-5.373-12-12-12s-12 5.373-12 12c0 5.99 4.388 10.954 10.125 11.854v-8.385H7.078v-3.47h3.047V9.43c0-3.007 1.792-4.669 4.533-4.669 1.312 0 2.686.235 2.686.235v2.953H15.83c-1.491 0-1.956.925-1.956 1.874v2.25h3.328l-.532 3.47h-2.796v8.385C19.612 23.027 24 18.062 24 12.073z" /></symbol>
  <symbol id="twitter"><path d="M23.953 4.57a10 10 0 01-2.825.775 4.958 4.958 0 002.163-2.723c-.951.555-2.005.959-3.127 1.184a4.92 4.92 0 00-8.384 4.482C7.69 8.095 4.067 6.13 1.64 3.162a4.822 4.822 0 00-.666 2.475c0 1.71.87 3.213 2.188 4.096a4.904 4.904 0 01-2.228-.616v.06a4.923 4.923 0 003.946 4.827 4.996 4.996 0 01-2.212.085 4.936 4.936 0 004.604 3.417 9.867 9.867 0 01-6.102 2.105c-.39 0-.779-.023-1.17-.067a13.995 13.995 0 007.557 2.209c9.053 0 13.998-7.496 13.998-13.985 0-.21 0-.42-.015-.63A9.935 9.935 0 0024 4.59z" /></symbol>
  <symbol id="linkedin"><path d="M20.447 20.452h-3.554v-5.569c0-1.328-.027-3.037-1.852-3.037-1.853 0-2.136 1.445-2.136 2.939v5.667H9.351V9h3.414v1.561h.046c.477-.9 1.637-1.85 3.37-1.85 3.601 0 4.267 2.37 4.267 5.455v6.286zM5.337 7.433c-1.144 0-2.063-.926-2.063-2.065 0-1.138.92-2.063 2.063-2.063 1.14 0 2.064.925 2.064 2.063 0 1.139-.925 2.065-2.064 2.065zm1.782 13.019H3.555V9h3.564v11.452zM22.225 0H1.771C.792 0 0 .774 0 1.729v20.542C0 23.227.792 24 1.771 24h20.451C23.2 24 24 23.227 24 22.271V1.729C24 .774 23.2 0 22.222 0h.003z" /></symbol>
  <symbol id="mail"><path d="M1792 710v794q0 66-47 113t-113 47h-1472q-66 0-113-47t-47-113v-794q44 49 101 87 362 246 497 345 57 42 92.5 65.5t94.5 48 110 24.5h2q51 0 110-24.5t94.5-48 92.5-65.5q170-123 498-345 57-39 100-87zm0-294q0 79-49 151t-122 123q-376 261-468 325-10 7-42.5 30.5t-54 38-52 32.5-57.5 27-50 9h-2q-23 0-50-9t-57.5-27-52-32.5-54-38-42.5-30.5q-91-64-262-182.5t-205-142.5q-62-42-117-115.5t-55-136.5q0-78 41.5-130t118.5-52h1472q65 0 112.5 47t47.5 113z" /></symbol>
  <symbol id="instagram"><path d="M12 0C8.74 0 8.333.015 7.053.072 5.775.132 4.905.333 4.14.63c-.789.306-1.459.717-2.126 1.384S.935 3.35.63 4.14C.333 4.905.131 5.775.072 7.053.012 8.333 0 8.74 0 12s.015 3.667.072 4.947c.06 1.277.261 2.148.558 2.913.306.788.717 1.459 1.384 2.126.667.666 1.336 1.079 2.126 1.384.766.296 1.636.499 2.913.558C8.333 23.988 8.74 24 12 24s3.667-.015 4.947-.072c1.277-.06 2.148-.262 2.913-.558.788-.306 1.459-.718 2.126-1.384.666-.667 1.079-1.335 1.384-2.126.296-.765.499-1.636.558-2.913.06-1.28.072-1.687.072-4.947s-.015-3.667-.072-4.947c-.06-1.277-.262-2.149-.558-2.913-.306-.789-.718-1.459-1.384-2.126C21.319 1.347 20.651.935 19.86.63c-.765-.297-1.636-.499-2.913-.558C15.667.012 15.26 0 12 0zm0 2.16c3.203 0 3.585.016 4.85.071 1.17.055 1.805.249 2.227.415.562.217.96.477 1.382.896.419.42.679.819.896 1.381.164.422.36 1.057.413 2.227.057 1.266.07 1.646.07 4.85s-.015 3.585-.074 4.85c-.061 1.17-.256 1.805-.421 2.227-.224.562-.479.96-.899 1.382-.419.419-.824.679-1.38.896-.42.164-1.065.36-2.235.413-1.274.057-1.649.07-4.859.07-3.211 0-3.586-.015-4.859-.074-1.171-.061-1.816-.256-2.236-.421-.569-.224-.96-.479-1.379-.899-.421-.419-.69-.824-.9-1.38-.165-.42-.359-1.065-.42-2.235-.045-1.26-.061-1.649-.061-4.844 0-3.196.016-3.586.061-4.861.061-1.17.255-1.814.42-2.234.21-.57.479-.96.9-1.381.419-.419.81-.689 1.379-.898.42-.166 1.051-.361 2.221-.421 1.275-.045 1.65-.06 4.859-.06l.045.03zm0 3.678c-3.405 0-6.162 2.76-6.162 6.162 0 3.405 2.76 6.162 6.162 6.162 3.405 0 6.162-2.76 6.162-6.162 0-3.405-2.76-6.162-6.162-6.162zM12 16c-2.21 0-4-1.79-4-4s1.79-4 4-4 4 1.79 4 4-1.79 4-4 4zm7.846-10.405c0 .795-.646 1.44-1.44 1.44-.795 0-1.44-.646-1.44-1.44 0-.794.646-1.439 1.44-1.439.793-.001 1.44.645 1.44 1.439z"/></symbol>
  <symbol id="github"><path d="M12 .297c-6.63 0-12 5.373-12 12 0 5.303 3.438 9.8 8.205 11.385.6.113.82-.258.82-.577 0-.285-.01-1.04-.015-2.04-3.338.724-4.042-1.61-4.042-1.61C4.422 18.07 3.633 17.7 3.633 17.7c-1.087-.744.084-.729.084-.729 1.205.084 1.838 1.236 1.838 1.236 1.07 1.835 2.809 1.305 3.495.998.108-.776.417-1.305.76-1.605-2.665-.3-5.466-1.332-5.466-5.93 0-1.31.465-2.38 1.235-3.22-.135-.303-.54-1.523.105-3.176 0 0 1.005-.322 3.3 1.23.96-.267 1.98-.399 3-.405 1.02.006 2.04.138 3 .405 2.28-1.552 3.285-1.23 3.285-1.23.645 1.653.24 2.873.12 3.176.765.84 1.23 1.91 1.23 3.22 0 4.61-2.805 5.625-5.475 5.92.42.36.81 1.096.81 2.22 0 1.606-.015 2.896-.015 3.286 0 .315.21.69.825.57C20.565 22.092 24 17.592 24 12.297c0-6.627-5.373-12-12-12"/></symbol>
  <symbol id="gitlab"><path d="M4.845.904c-.435 0-.82.28-.955.692C2.639 5.449 1.246 9.728.07 13.335a1.437 1.437 0 00.522 1.607l11.071 8.045c.2.145.472.144.67-.004l11.073-8.04a1.436 1.436 0 00.522-1.61c-1.285-3.942-2.683-8.256-3.817-11.746a1.004 1.004 0 00-.957-.684.987.987 0 00-.949.69l-2.405 7.408H8.203l-2.41-7.408a.987.987 0 00-.942-.69h-.006zm-.006 1.42l2.173 6.678H2.675zm14.326 0l2.168 6.678h-4.341zm-10.593 7.81h6.862c-1.142 3.52-2.288 7.04-3.434 10.559L8.572 10.135zm-5.514.005h4.321l3.086 9.5zm13.567 0h4.325c-2.467 3.17-4.95 6.328-7.411 9.502 1.028-3.167 2.059-6.334 3.086-9.502zM2.1 10.762l6.977 8.947-7.817-5.682a.305.305 0 01-.112-.341zm19.798 0l.952 2.922a.305.305 0 01-.11.341v.002l-7.82 5.68.026-.035z"/></symbol>
  <symbol id="rss"><path d="M19.199 24C19.199 13.467 10.533 4.8 0 4.8V0c13.165 0 24 10.835 24 24h-4.801zM3.291 17.415c1.814 0 3.293 1.479 3.293 3.295 0 1.813-1.485 3.29-3.301 3.29C1.47 24 0 22.526 0 20.71s1.475-3.294 3.291-3.295zM15.909 24h-4.665c0-6.169-5.075-11.245-11.244-11.245V8.09c8.727 0 15.909 7.184 15.909 15.91z"/></symbol>
  <symbol id="github-pages"><path d="M98.955,23.733h-2.081V0.78h7.009c5.723,0,7.682,3.305,7.682,6.886s-1.959,6.886-7.682,6.886h-4.927V23.733z
    M98.955,12.624h5.203c4.315,0,5.141-2.755,5.141-4.958s-0.827-4.958-5.141-4.958h-5.203V12.624z M119.193,10.023
   c-2.05,0-3.397,0.367-4.591,0.765V8.951c1.347-0.581,3.122-0.826,4.591-0.826c4.591,0,5.785,2.081,5.785,5.141v10.466h-1.194
   l-0.459-1.224c-1.377,1.01-3.091,1.53-4.621,1.53c-4.009,0-5.356-2.357-5.356-4.928c0-2.601,1.439-4.529,5.448-4.774l4.04-0.245
   v-0.857C122.835,11.002,122.04,10.023,119.193,10.023z M118.642,15.991c-2.173,0.214-3.122,1.347-3.122,3.121
   c0,1.377,0.337,3.03,3.244,3.03c1.653,0,2.754-0.46,4.07-1.224v-5.325L118.642,15.991z M131.71,19.449
   c-0.337,0.336-0.582,0.765-0.582,1.132c0,0.765,0.367,1.102,1.163,1.193l5.203,0.612c2.877,0.306,4.193,1.439,4.193,4.101
   c0,3.734-3.734,5.203-7.957,5.203c-4.285,0-6.855-1.255-6.855-4.621c0-2.081,1.439-3.459,3.153-4.04v-0.031
   c-0.582-0.398-0.979-1.01-0.979-2.02c0-0.856,0.52-1.56,1.163-2.081c-1.836-1.01-2.448-2.877-2.448-5.019
   c0-3.152,1.346-5.754,5.968-5.754c0.949,0,1.745,0.122,2.449,0.306h5.203v1.163l-2.571,0.735c0.643,0.979,0.887,2.203,0.887,3.55
   c0,3.153-1.347,5.754-5.968,5.754C132.965,19.633,132.291,19.571,131.71,19.449z M132.597,23.58c-2.02,0.46-3.734,1.408-3.734,3.367
   c0,2.265,1.714,2.908,4.866,2.908c3.061,0,5.937-0.765,5.937-3.367c0-1.561-0.735-2.173-2.601-2.388L132.597,23.58z M137.708,13.879
   c0-2.02-0.398-3.887-3.979-3.887s-3.978,1.867-3.978,3.887s0.398,3.886,3.978,3.886S137.708,15.899,137.708,13.879z M149.206,8.125
   c5.203,0,5.815,3.55,5.815,7.957v0.979h-10.1c0.123,2.662,0.827,5.081,4.285,5.081c2.203,0,3.55-0.214,5.05-0.857v1.836
   c-1.714,0.765-3.55,0.918-5.05,0.918c-5.172,0-6.427-3.55-6.427-7.957S144.033,8.125,149.206,8.125z M144.921,15.317h7.957
   c0-2.724-0.153-5.295-3.673-5.295C145.655,10.023,145.013,12.563,144.921,15.317z M163.191,14.95
   c4.346,0.398,5.387,1.867,5.387,4.376c0,2.356-1.5,4.713-6.151,4.713c-1.469,0-3.581-0.368-4.56-0.765v-1.836
   c0.949,0.336,2.418,0.704,4.591,0.704c3.183,0,4.04-1.347,4.04-2.785c0-1.408-0.429-2.387-3.458-2.632
   c-4.438-0.398-5.356-1.959-5.356-4.07c0-2.173,1.408-4.529,5.723-4.529c1.438,0,3.06,0.183,4.407,0.765v1.837
   c-1.193-0.398-2.387-0.704-4.438-0.704c-3.03,0-3.673,1.133-3.673,2.632C159.703,14.001,160.253,14.705,163.191,14.95z
    M17.184,10.327H9.687c-0.194,0-0.35,0.157-0.35,0.35v3.666c0,0.193,0.157,0.35,0.35,0.35h2.925v4.555c0,0-0.657,0.223-2.472,0.223
   c-2.142,0-5.134-0.783-5.134-7.362c0-6.582,3.116-7.447,6.041-7.447c2.532,0,3.623,0.446,4.317,0.66
   c0.218,0.067,0.42-0.15,0.42-0.344l0.837-3.541c0-0.09-0.031-0.199-0.134-0.274C16.204,0.963,14.484,0,10.139,0
   C5.134,0,0,2.129,0,12.366c0,10.241,5.878,11.766,10.832,11.766c4.102,0,6.589-1.752,6.589-1.752c0.102-0.057,0.114-0.2,0.114-0.265
   V10.678C17.535,10.484,17.378,10.327,17.184,10.327z M56.129,1.226c0-0.195-0.155-0.352-0.349-0.352h-4.221
   c-0.193,0-0.349,0.157-0.349,0.352c0,0.001,0.001,8.158,0.001,8.158h-6.58V1.226c0-0.195-0.156-0.352-0.349-0.352h-4.221
   c-0.192,0-0.349,0.157-0.349,0.352v22.095c0,0.194,0.157,0.353,0.349,0.353h4.221c0.193,0,0.349-0.158,0.349-0.353v-9.453h6.58
   c0,0-0.012,9.452-0.012,9.453c0,0.194,0.157,0.353,0.349,0.353h4.232c0.193,0,0.348-0.158,0.349-0.353V1.226z M25.303,4.125
   c0-1.52-1.218-2.748-2.722-2.748c-1.502,0-2.722,1.228-2.722,2.748c0,1.519,1.22,2.751,2.722,2.751
   C24.085,6.876,25.303,5.644,25.303,4.125z M25.002,18.657c0-0.566,0-10.197,0-10.197c0-0.194-0.156-0.352-0.349-0.352h-4.208
   c-0.192,0-0.365,0.199-0.365,0.393c0,0,0,12.27,0,14.613c0,0.429,0.268,0.556,0.614,0.556c0,0,1.796,0,3.792,0
   c0.416,0,0.518-0.203,0.518-0.564C25.002,22.323,25.002,19.252,25.002,18.657z M72.511,8.141h-4.189
   c-0.192,0-0.349,0.158-0.349,0.353v10.831c0,0-1.064,0.779-2.575,0.779c-1.511,0-1.911-0.685-1.911-2.165c0-1.48,0-9.444,0-9.444
   c0-0.195-0.156-0.353-0.349-0.353h-4.251c-0.192,0-0.349,0.158-0.349,0.353c0,0,0,5.768,0,10.16c0,4.397,2.448,5.472,5.816,5.472
   c2.763,0,4.991-1.526,4.991-1.526s0.106,0.804,0.154,0.9c0.048,0.096,0.173,0.19,0.309,0.19l2.705-0.012
   c0.192,0,0.349-0.157,0.349-0.351L72.86,8.495C72.86,8.3,72.704,8.141,72.511,8.141z M84.19,7.645c-2.379,0-3.997,1.061-3.997,1.061
   v-7.48c0-0.195-0.156-0.352-0.348-0.352h-4.233c-0.193,0-0.349,0.157-0.349,0.352v22.095c0,0.194,0.156,0.353,0.349,0.353
   c0,0,2.937,0,2.937,0c0.132,0,0.232-0.069,0.306-0.188c0.073-0.118,0.178-1.018,0.178-1.018s1.732,1.64,5.009,1.64
   c3.847,0,6.053-1.952,6.053-8.764C90.094,8.535,86.571,7.645,84.19,7.645z M82.538,20.091c-1.453-0.045-2.438-0.704-2.438-0.704
   v-6.995c0,0,0.971-0.596,2.165-0.702c1.509-0.135,2.962,0.321,2.962,3.919C85.227,19.404,84.571,20.152,82.538,20.091z
    M37.058,8.106h-3.166c0,0-0.005-4.183-0.005-4.184c0-0.158-0.081-0.238-0.265-0.238h-4.315c-0.168,0-0.258,0.074-0.258,0.235v4.322
   c0,0-2.162,0.522-2.309,0.564c-0.145,0.043-0.253,0.177-0.253,0.337v2.716c0,0.195,0.156,0.353,0.349,0.353h2.212
   c0,0,0,2.841,0,6.535c0,4.858,3.404,5.335,5.702,5.335c1.05,0,2.305-0.338,2.513-0.414c0.125-0.045,0.198-0.175,0.198-0.317
   l0.004-2.991c0-0.195-0.164-0.353-0.35-0.353c-0.184,0-0.657,0.076-1.142,0.076c-1.556,0-2.082-0.723-2.082-1.66
   c0-0.935-0.001-6.211-0.001-6.211h3.167c0.193,0,0.349-0.158,0.349-0.353V8.458C37.407,8.263,37.25,8.106,37.058,8.106z"/></symbol>
  <symbol id="hugo"><path fill="#ebb951" stroke="#fcd804" d="M1345.211 24.704l112.262 64.305a43 43 0 0 1 21.627 37.312v142.237a40 40 0 0 1-20.702 35.037l-120.886 66.584a42 42 0 0 1-41.216-.389l-106.242-61.155a57 57 0 0 1-28.564-49.4V138.71a64 64 0 0 1 31.172-54.939l98.01-58.564a54 54 0 0 1 54.54-.503z"/>
    <path fill="#33ba91" stroke="#00a88a" d="M958.07 22.82l117.31 66.78a41 41 0 0 1 20.72 35.64v139.5a45 45 0 0 1-23.1 39.32L955.68 369.4a44 44 0 0 1-43.54-.41l-105.82-61.6a56 56 0 0 1-27.83-48.4V140.07a68 68 0 0 1 33.23-58.44l98.06-58.35a48 48 0 0 1 48.3-.46z"/>
    <path fill="#0594cb" stroke="#0083c0" d="M575.26 20.97l117.23 68.9a40 40 0 0 1 19.73 34.27l.73 138.67a48 48 0 0 1-24.64 42.2l-115.13 64.11a45 45 0 0 1-44.53-.42l-105.83-61.6a55 55 0 0 1-27.33-47.53V136.52a63 63 0 0 1 29.87-53.59l99.3-61.4a49 49 0 0 1 50.6-.56z"/>
    <path fill="#ff4088" stroke="#c9177e" d="M195.81 24.13l114.41 66.54a44 44 0 0 1 21.88 38.04v136.43a48 48 0 0 1-24.45 41.82L194.1 370.9a49 49 0 0 1-48.48-.23L41.05 310.48a53 53 0 0 1-26.56-45.93V135.08a55 55 0 0 1 26.1-46.8l102.8-63.46a51 51 0 0 1 52.42-.69z"/>
    <path fill="#fff" d="M1320.72 89.15c58.79 0 106.52 47.73 106.52 106.51 0 58.8-47.73 106.52-106.52 106.52-58.78 0-106.52-47.73-106.52-106.52 0-58.78 47.74-106.51 106.52-106.51zm0 39.57c36.95 0 66.94 30 66.94 66.94a66.97 66.97 0 0 1-66.94 66.94c-36.95 0-66.94-29.99-66.94-66.94a66.97 66.97 0 0 1 66.93-66.94h.01zm-283.8 65.31c0 47.18-8.94 60.93-26.81 80.58-17.87 19.65-41.57 27.57-71.1 27.57-27 0-48.75-9.58-67.61-26.23-20.88-18.45-36.08-47.04-36.08-78.95 0-31.37 11.72-58.48 32.49-78.67 18.22-17.67 45.34-29.18 73.3-29.18 33.77 0 68.83 15.98 90.44 47.53l-31.73 26.82c-13.45-25.03-32.94-33.46-60.82-34.26-30.83-.88-64.77 28.53-62.25 67.75 1.4 21.94 11.65 59.65 60.96 66.57 25.9 3.63 55.36-24.02 55.36-39.04H944.4v-37.5h92.5V194l.02.03zm-562.6-94.65h42.29v112.17c0 17.8.49 29.33 1.47 34.61 1.69 8.48 4.81 14.37 11.17 19.5 6.37 5.13 13.8 6.59 24.84 6.59 11.2 0 14.96-1.74 20.66-6.6 5.69-4.85 9.12-9.46 10.28-16.53 1.15-7.07 3.07-18.8 3.07-35.18V99.38h42.28v108.78c0 24.86-1.07 42.43-3.21 52.69-2.14 10.27-6.08 18.93-11.82 26-5.74 7.06-13.42 12.69-23.03 16.88-9.62 4.19-22.16 6.28-37.65 6.28-18.7 0-32.87-2.28-42.52-6.85-9.66-4.57-17.3-10.5-22.9-17.8-5.61-7.3-9.3-14.95-11.08-22.96-2.58-11.86-3.88-29.38-3.88-52.55V99.38h.03zM93.91 299.92V92.7h43.35v75.48h71.92V92.7h43.48v207.22h-43.48v-90.61h-71.92v90.61z"/></symbol>
  <symbol id="share"><path d="M0 0h24v24H0z" fill="none"/><path d="M18 16.08c-.76 0-1.44.3-1.96.77L8.91 12.7c.05-.23.09-.46.09-.7s-.04-.47-.09-.7l7.05-4.11c.54.5 1.25.81 2.04.81 1.66 0 3-1.34 3-3s-1.34-3-3-3-3 1.34-3 3c0 .24.04.47.09.7L8.04 9.81C7.5 9.31 6.79 9 6 9c-1.66 0-3 1.34-3 3s1.34 3 3 3c.79 0 1.5-.31 2.04-.81l7.12 4.16c-.05.21-.08.43-.08.65 0 1.61 1.31 2.92 2.92 2.92 1.61 0 2.92-1.31 2.92-2.92s-1.31-2.92-2.92-2.92z"/></symbol>
</svg>
